<svg width="22" height="20" viewBox="0 0 22 20" fill="none" xmlns="http://www.w3.org/2000/svg">
<path d="M21.3125 16.6369C21.3125 18.1122 20.1065 19.3182 18.6319 19.3182H3.78654C2.31126 19.3182 1.10327 18.1115 1.10327 16.6369V8.4515C1.10327 6.97687 2.31192 5.76953 3.78654 5.76953H18.6312C20.1065 5.76953 21.3119 6.97687 21.3119 8.4515V16.6369H21.3125Z" stroke="white" stroke-width="1.3" stroke-miterlimit="10" stroke-linecap="round"/>
<path d="M2.78906 5.96578L14.322 1.18074C14.322 1.18074 16.5444 0.333258 17.1546 2.30855C17.8137 4.44813 18.2615 5.76955 18.2615 5.76955" stroke="white" stroke-width="1.3" stroke-miterlimit="10" stroke-linecap="round"/>
<path d="M17.2452 14.2366C18.1795 14.2366 18.9369 13.4792 18.9369 12.5449C18.9369 11.6106 18.1795 10.8531 17.2452 10.8531C16.3109 10.8531 15.5535 11.6106 15.5535 12.5449C15.5535 13.4792 16.3109 14.2366 17.2452 14.2366Z" stroke="white" stroke-width="1.3" stroke-miterlimit="10" stroke-linecap="round"/>
</svg>
