<svg width="22" height="20" viewBox="0 0 22 20" fill="none" xmlns="http://www.w3.org/2000/svg">
<g clip-path="url(#clip0)">
<path d="M0.772461 0.805786H3.46066" stroke="white" stroke-width="1.5" stroke-miterlimit="10" stroke-linecap="round"/>
<path d="M3.46069 0.854126L8.09552 16.9702" stroke="white" stroke-width="1.5" stroke-miterlimit="10"/>
<path d="M3.81616 3.88403H22.0002" stroke="white" stroke-width="1.5" stroke-miterlimit="10" stroke-linejoin="round"/>
<path d="M18.2922 13.7953L21.274 4.448" stroke="white" stroke-width="1.5" stroke-miterlimit="10"/>
<path d="M6.98315 13.2313H18.9101" stroke="white" stroke-width="1.5" stroke-miterlimit="10"/>
<path d="M8.52825 19.307C9.27911 19.307 9.8878 18.672 9.8878 17.8888C9.8878 17.1055 9.27911 16.4706 8.52825 16.4706C7.77739 16.4706 7.1687 17.1055 7.1687 17.8888C7.1687 18.672 7.77739 19.307 8.52825 19.307Z" stroke="white" stroke-width="1.5" stroke-miterlimit="10"/>
<path d="M17.7978 19.307C18.5486 19.307 19.1573 18.672 19.1573 17.8888C19.1573 17.1055 18.5486 16.4706 17.7978 16.4706C17.0469 16.4706 16.4382 17.1055 16.4382 17.8888C16.4382 18.672 17.0469 19.307 17.7978 19.307Z" stroke="white" stroke-width="1.5" stroke-miterlimit="10"/>
<path d="M9.73315 16.9863H16.7318" stroke="white" stroke-width="1.5" stroke-miterlimit="10"/>
</g>
<defs>
<clipPath id="clip0">
<rect width="22" height="20" fill="white"/>
</clipPath>
</defs>
</svg>
