<svg width="33" height="34" viewBox="0 0 33 34" fill="none" xmlns="http://www.w3.org/2000/svg">
<path d="M5.01852 9.03704C7.03869 9.03704 8.71096 7.53641 8.99111 5.59259H31.4259C31.7434 5.59259 32 5.33598 32 5.01852C32 4.70105 31.7434 4.44444 31.4259 4.44444H8.99111C8.71096 2.50063 7.03869 1 5.01852 1C2.80259 1 1 2.80317 1 5.01852C1 7.23387 2.80259 9.03704 5.01852 9.03704ZM5.01852 2.14815C6.60124 2.14815 7.88889 3.4358 7.88889 5.01852C7.88889 6.60124 6.60124 7.88889 5.01852 7.88889C3.4358 7.88889 2.14815 6.60124 2.14815 5.01852C2.14815 3.4358 3.4358 2.14815 5.01852 2.14815Z" fill="white" stroke="white"/>
<path d="M27.9815 25.1111C25.9613 25.1111 24.289 26.6117 24.0089 28.5555H1.57407C1.25719 28.5555 1 28.8121 1 29.1296C1 29.4471 1.25719 29.7037 1.57407 29.7037H24.0089C24.289 31.6475 25.9613 33.1481 27.9815 33.1481C30.1968 33.1481 32 31.345 32 29.1296C32 26.9143 30.1968 25.1111 27.9815 25.1111ZM27.9815 32C26.3988 32 25.1111 30.7123 25.1111 29.1296C25.1111 27.5469 26.3988 26.2592 27.9815 26.2592C29.5642 26.2592 30.8519 27.5469 30.8519 29.1296C30.8519 30.7123 29.5642 32 27.9815 32Z" fill="white" stroke="white"/>
<path d="M31.4259 16.5H20.7298C20.5024 14.4322 18.7464 12.8179 16.6188 12.8179C14.4913 12.8179 12.7352 14.4328 12.5079 16.5H1.57407C1.25719 16.5 1 16.7567 1 17.0741C1 17.3916 1.25719 17.6482 1.57407 17.6482H12.5441C12.8753 19.6 14.574 21.0926 16.6188 21.0926C18.6637 21.0926 20.3618 19.6 20.693 17.6482H31.4259C31.7434 17.6482 32 17.3916 32 17.0741C32 16.7567 31.7434 16.5 31.4259 16.5ZM16.6188 19.9445C14.9707 19.9445 13.6296 18.6034 13.6296 16.9553C13.6296 15.3071 14.9707 13.9661 16.6188 13.9661C18.267 13.9661 19.608 15.3071 19.608 16.9553C19.608 18.6034 18.267 19.9445 16.6188 19.9445Z" fill="white" stroke="white"/>
</svg>
