<svg width="76" height="22" viewBox="0 0 76 22" fill="none" xmlns="http://www.w3.org/2000/svg">
<path d="M19.8681 21.0145L14.5623 15.176H6.72051V11.9398H15.4565C16.7838 11.9398 17.7828 11.579 18.4535 10.8575C19.1276 10.136 19.4629 9.08881 19.4629 7.72286C19.4629 6.35342 19.1136 5.33772 18.4115 4.67226C17.7094 4.0068 16.7244 3.67407 15.4565 3.67407H4.0414V21.018H0.408691V0.00354004H15.4565C16.6476 0.00354004 17.7129 0.182163 18.656 0.53941C19.5991 0.896656 20.3955 1.40801 21.0487 2.06996C21.7019 2.73542 22.2014 3.54098 22.5472 4.48313C22.893 5.42878 23.0677 6.48651 23.0677 7.66332C23.0677 9.41803 22.687 10.8855 21.929 12.0729C21.171 13.2567 20.1091 14.1113 18.7434 14.6296L25.0552 21.018H19.8681V21.0145Z" fill="white"/>
<path d="M26.9624 21.0145V0H45.6708V3.67053H30.5951V17.344H45.7023V21.0145H26.9624ZM33.2742 11.8802V8.78756H44.8919V11.8802H33.2742Z" fill="white"/>
<path d="M69.9157 21.0145L61.1238 12.4301L52.4193 21.0145H47.6619L58.9058 10.087L48.4687 0H53.5126L61.4976 7.77536L69.3673 0H74.1247L63.6877 10.087L75.0469 21.0145H69.9157Z" fill="white"/>
</svg>
