<svg width="24" height="24" viewBox="0 0 24 24" fill="none" xmlns="http://www.w3.org/2000/svg">
<path d="M5.56781 7.64264L6.16178 8.23661L7.77399 6.6244C8.0837 6.66259 8.26613 6.72623 8.49948 6.95957C8.65221 7.11231 8.65646 7.31171 8.44432 7.52384L6.94667 9.0215L7.54064 9.61547L9.03405 8.12206C9.05526 8.10084 9.1486 7.99902 9.16557 7.98205C9.45407 8.0075 9.66621 8.1263 9.89531 8.3554C10.0438 8.50389 10.048 8.7033 9.83591 8.91543L8.33826 10.4131L8.93223 11.0071L10.4214 9.51788C10.8796 9.05968 11.0366 8.54632 10.5402 8.04993C10.1923 7.70203 9.78924 7.58748 9.44135 7.52809C9.5262 7.25656 9.43286 6.9426 9.1486 6.65834C8.80495 6.31469 8.51221 6.28499 8.16855 6.22984L8.30007 5.86921L7.82066 5.38979L5.56781 7.64264ZM10.3832 10.184C9.5559 11.0113 9.39468 11.5119 9.96743 12.0847C10.3196 12.4368 10.8032 12.9205 11.2402 13.1199L11.639 12.7211C11.2742 12.4495 11.1087 12.2841 10.765 11.9404C10.4469 11.6222 10.3153 11.4398 10.7226 11.0325L11.4396 11.7495C11.8469 12.1568 12.2288 12.2162 12.6318 11.8132C13.3785 11.0664 13.1537 10.6889 12.5003 10.0355C11.7875 9.32272 11.3505 9.21666 10.3832 10.184ZM11.1511 10.604C11.6305 10.1161 11.7706 10.2137 12.0845 10.5276C12.3688 10.8119 12.3518 10.9052 12.0675 11.1895C11.9615 11.2956 11.8384 11.2913 11.7154 11.1683L11.1511 10.604ZM11.5092 13.584L12.1031 14.178L13.7196 12.5615C14.0293 12.5997 14.2202 12.6718 14.462 12.9137C14.6105 13.0621 14.6275 13.2403 14.4026 13.4652L12.8965 14.9713L13.4905 15.5653L14.9881 14.0677C15.4166 13.6391 15.633 13.1258 15.1112 12.6039C14.7675 12.2603 14.4493 12.2221 14.1141 12.1669L14.2414 11.8106L13.762 11.3311L11.5092 13.584ZM14.5588 15.1317C14.1303 15.5602 13.9182 16.0693 14.4442 16.5954C14.7879 16.9391 15.0764 16.9476 15.4328 17.0324L15.314 17.3888L15.7892 17.864L18.042 15.6111L17.448 15.0172L15.8273 16.6379C15.5219 16.5954 15.3267 16.5276 15.0891 16.29C14.9406 16.1415 14.9194 15.959 15.1443 15.7342L16.6547 14.2238L16.0607 13.6298L14.5588 15.1317Z" fill="white"/>
<rect x="12.4143" width="15" height="2" transform="rotate(45 12.4143 0)" fill="white"/>
<rect x="1.41431" y="11" width="15" height="2" transform="rotate(45 1.41431 11)" fill="white"/>
</svg>
