<svg width="12" height="12" viewBox="0 0 12 12" fill="none" xmlns="http://www.w3.org/2000/svg">
<mask id="path-1-inside-1" fill="white">
<path fill-rule="evenodd" clip-rule="evenodd" d="M4.99974 -0.000244141H-0.000244141V4.99978H4.99974V-0.000244141ZM4.99974 6.99991H-0.000244141V11.9999H4.99974V6.99991ZM6.99973 -0.000244141H11.9997V4.99978H6.99973V-0.000244141ZM11.9997 6.99991H6.99973V11.9999H11.9997V6.99991Z"/>
</mask>
<path fill-rule="evenodd" clip-rule="evenodd" d="M4.99974 -0.000244141H-0.000244141V4.99978H4.99974V-0.000244141ZM4.99974 6.99991H-0.000244141V11.9999H4.99974V6.99991ZM6.99973 -0.000244141H11.9997V4.99978H6.99973V-0.000244141ZM11.9997 6.99991H6.99973V11.9999H11.9997V6.99991Z" fill="black" fill-opacity="0.01"/>
<path d="M-0.000244141 -0.000244141V-1.00024H-1.00024V-0.000244141H-0.000244141ZM4.99974 -0.000244141H5.99974V-1.00024H4.99974V-0.000244141ZM-0.000244141 4.99978H-1.00024V5.99978H-0.000244141V4.99978ZM4.99974 4.99978V5.99978H5.99974V4.99978H4.99974ZM-0.000244141 6.99991V5.99991H-1.00024V6.99991H-0.000244141ZM4.99974 6.99991H5.99974V5.99991H4.99974V6.99991ZM-0.000244141 11.9999H-1.00024V12.9999H-0.000244141V11.9999ZM4.99974 11.9999V12.9999H5.99974V11.9999H4.99974ZM11.9997 -0.000244141H12.9997V-1.00024H11.9997V-0.000244141ZM6.99973 -0.000244141V-1.00024H5.99973V-0.000244141H6.99973ZM11.9997 4.99978V5.99978H12.9997V4.99978H11.9997ZM6.99973 4.99978H5.99973V5.99978H6.99973V4.99978ZM6.99973 6.99991V5.99991H5.99973V6.99991H6.99973ZM11.9997 6.99991H12.9997V5.99991H11.9997V6.99991ZM6.99973 11.9999H5.99973V12.9999H6.99973V11.9999ZM11.9997 11.9999V12.9999H12.9997V11.9999H11.9997ZM-0.000244141 0.999756H4.99974V-1.00024H-0.000244141V0.999756ZM0.999756 4.99978V-0.000244141H-1.00024V4.99978H0.999756ZM4.99974 3.99978H-0.000244141V5.99978H4.99974V3.99978ZM3.99974 -0.000244141V4.99978H5.99974V-0.000244141H3.99974ZM-0.000244141 7.99991H4.99974V5.99991H-0.000244141V7.99991ZM0.999756 11.9999V6.99991H-1.00024V11.9999H0.999756ZM4.99974 10.9999H-0.000244141V12.9999H4.99974V10.9999ZM3.99974 6.99991V11.9999H5.99974V6.99991H3.99974ZM11.9997 -1.00024H6.99973V0.999756H11.9997V-1.00024ZM12.9997 4.99978V-0.000244141H10.9997V4.99978H12.9997ZM6.99973 5.99978H11.9997V3.99978H6.99973V5.99978ZM5.99973 -0.000244141V4.99978H7.99973V-0.000244141H5.99973ZM6.99973 7.99991H11.9997V5.99991H6.99973V7.99991ZM7.99973 11.9999V6.99991H5.99973V11.9999H7.99973ZM11.9997 10.9999H6.99973V12.9999H11.9997V10.9999ZM10.9997 6.99991V11.9999H12.9997V6.99991H10.9997Z" fill="white" mask="url(#path-1-inside-1)"/>
</svg>
